<?xml version="1.0" encoding="utf-8"?>
<!-- Generator: Adobe Illustrator 19.1.0, SVG Export Plug-In . SVG Version: 6.00 Build 0)  -->
<!DOCTYPE svg PUBLIC "-//W3C//DTD SVG 1.1//EN" "http://www.w3.org/Graphics/SVG/1.1/DTD/svg11.dtd">
<svg version="1.1" xmlns="http://www.w3.org/2000/svg" xmlns:xlink="http://www.w3.org/1999/xlink" x="0px" y="0px"
	 viewBox="0 0 264.9 103.2" enable-background="new 0 0 264.9 103.2" xml:space="preserve">
<g id="Layer_1">
	<g>
		<g>
			<path fill="#58595B" d="M6.8,88v15H5.1V88c-0.8,0-1.7,0-2.6,0c-0.9,0-1.7,0-2.6,0v-1.6h11.9V88L6.8,88z"/>
			<path fill="#58595B" d="M15,86.4h9.9v1.5h-8.2v5.7h7.7v1.5h-7.7v6.3h8.4v1.5H15V86.4z"/>
			<path fill="#58595B" d="M36,87.7c-1.9,0-3.4,0.6-4.5,1.8c-1.1,1.2-1.6,2.9-1.6,5.2c0,2.2,0.5,3.9,1.6,5.1
				c1.1,1.2,2.6,1.8,4.5,1.8c0.7,0,1.3-0.1,1.9-0.2c0.6-0.1,1.2-0.3,1.7-0.5l0.4,1.4c-0.6,0.3-1.2,0.5-1.9,0.6
				c-0.6,0.1-1.4,0.2-2.2,0.2c-1.3,0-2.5-0.2-3.5-0.6c-1-0.4-1.8-1-2.4-1.7c-0.6-0.7-1.1-1.6-1.4-2.7s-0.5-2.2-0.5-3.5
				c0-1.2,0.2-2.4,0.5-3.4c0.3-1,0.8-1.9,1.5-2.7c0.7-0.7,1.5-1.3,2.4-1.7c1-0.4,2.1-0.6,3.3-0.6c0.8,0,1.5,0.1,2.1,0.2
				c0.6,0.1,1.2,0.3,1.7,0.6c-0.1,0.2-0.1,0.5-0.2,0.7c-0.1,0.2-0.1,0.5-0.2,0.7C38.5,87.9,37.4,87.7,36,87.7z"/>
			<path fill="#58595B" d="M54.2,95.2h-8.7v7.7h-1.7V86.4h1.7v7.2h8.7v-7.2h1.7v16.5h-1.7V95.2z"/>
			<path fill="#58595B" d="M69.5,97.7c0.3,0.6,0.7,1.1,0.9,1.6c0.3,0.5,0.5,0.9,0.7,1.3l0.2,0c0-0.6-0.1-1.1-0.1-1.7
				c0-0.6,0-1.2,0-1.9V86.4h1.7v16.5H71l-7-11.3c-0.3-0.4-0.5-0.8-0.8-1.4c-0.3-0.5-0.5-1-0.7-1.4v0c0,0,0,0,0,0c0,0,0,0,0,0h-0.2
				c0,0.6,0.1,1.1,0.1,1.7c0,0.5,0,1.2,0,1.9v10.5h-1.7V86.4h1.9L69.5,97.7z"/>
			<path fill="#58595B" d="M79.4,102.9h-1.7V86.4h1.7V102.9z"/>
			<path fill="#58595B" d="M91.3,87.7c-1.9,0-3.4,0.6-4.5,1.8c-1.1,1.2-1.6,2.9-1.6,5.2c0,2.2,0.5,3.9,1.6,5.1
				c1.1,1.2,2.6,1.8,4.5,1.8c0.7,0,1.3-0.1,1.9-0.2c0.6-0.1,1.2-0.3,1.7-0.5l0.4,1.4c-0.6,0.3-1.2,0.5-1.9,0.6
				c-0.6,0.1-1.4,0.2-2.2,0.2c-1.3,0-2.5-0.2-3.5-0.6c-1-0.4-1.8-1-2.4-1.7c-0.6-0.7-1.1-1.6-1.4-2.7c-0.3-1-0.5-2.2-0.5-3.5
				c0-1.2,0.2-2.4,0.5-3.4c0.3-1,0.8-1.9,1.5-2.7c0.7-0.7,1.5-1.3,2.4-1.7c1-0.4,2.1-0.6,3.3-0.6c0.8,0,1.5,0.1,2.1,0.2
				c0.6,0.1,1.2,0.3,1.7,0.6c-0.1,0.2-0.1,0.5-0.2,0.7c-0.1,0.2-0.1,0.5-0.2,0.7C93.8,87.9,92.6,87.7,91.3,87.7z"/>
			<path fill="#58595B" d="M108.3,98.3H101l-1.7,4.6h-1.7l6.2-16.5h1.7c1,2.8,2.1,5.5,3.1,8.3s2,5.5,3.1,8.3H110L108.3,98.3z
				 M101.6,96.9h6.2l-1.9-5.1c-0.2-0.6-0.4-1.2-0.6-1.8c-0.2-0.7-0.4-1.3-0.6-1.8c-0.2,0.5-0.4,1.1-0.6,1.8
				c-0.2,0.7-0.4,1.3-0.6,1.8L101.6,96.9z"/>
			<path fill="#58595B" d="M115.1,86.4h1.7v15h8v1.5h-9.7V86.4z"/>
			<path fill="#58595B" d="M142,100.2l-3.7-8c-0.2-0.5-0.4-1-0.7-1.5c-0.2-0.5-0.4-1.1-0.6-1.8l-0.2,0c0.1,0.8,0.1,1.5,0.1,2.2
				c0,0.7,0,1.3,0,1.7v10.1h-1.6V86.4h2l4,8.9c0.1,0.3,0.3,0.6,0.4,0.9c0.1,0.3,0.3,0.7,0.4,1c0.1,0.3,0.3,0.7,0.4,1
				c0.1,0.3,0.2,0.6,0.3,0.8c0.1-0.2,0.2-0.4,0.3-0.7c0.1-0.3,0.3-0.6,0.4-1s0.3-0.7,0.5-1.1c0.1-0.4,0.3-0.7,0.4-0.9l4-8.9h2v16.5
				h-1.7V92.8c0-0.4,0-1,0-1.7c0-0.7,0.1-1.4,0.2-2.2l-0.2,0c-0.2,0.7-0.5,1.3-0.7,1.8c-0.2,0.5-0.4,1-0.7,1.5l-3.7,8H142z"/>
			<path fill="#58595B" d="M164.6,98.3h-7.3l-1.7,4.6h-1.7l6.2-16.5h1.7c1,2.8,2.1,5.5,3.1,8.3c1,2.7,2,5.5,3.1,8.3h-1.7L164.6,98.3
				z M157.9,96.9h6.2l-1.9-5.1c-0.2-0.6-0.4-1.2-0.6-1.8c-0.2-0.7-0.4-1.3-0.6-1.8c-0.2,0.5-0.4,1.1-0.6,1.8
				c-0.2,0.7-0.4,1.3-0.6,1.8L157.9,96.9z"/>
			<path fill="#58595B" d="M182.6,91.3c0,1.2-0.4,2.2-1.1,3.1c-0.7,0.9-1.7,1.4-2.9,1.8l4,6.8h-1.9l-3.9-6.7H173v6.7h-1.7V86.4h5.8
				c0.9,0,1.6,0.1,2.3,0.4c0.7,0.3,1.2,0.6,1.7,1c0.5,0.4,0.8,0.9,1.1,1.5C182.5,89.9,182.6,90.6,182.6,91.3z M180.9,91.3
				c0-1-0.3-1.8-0.9-2.4c-0.6-0.6-1.5-0.9-2.8-0.9H173v6.7h4c1.2,0,2.1-0.3,2.8-0.9C180.5,93.2,180.9,92.3,180.9,91.3z"/>
			<path fill="#58595B" d="M188.2,102.9h-1.7V86.4h1.7V102.9z M191.3,94.1l7.4,8.8h-2l-7-8.3v-0.8l6.8-7.4h2L191.3,94.1z"/>
			<path fill="#58595B" d="M201.9,86.4h9.9v1.5h-8.2v5.7h7.7v1.5h-7.7v6.3h8.4v1.5h-10.1V86.4z"/>
			<path fill="#58595B" d="M221.1,88v15h-1.7V88c-0.8,0-1.7,0-2.6,0c-0.9,0-1.7,0-2.6,0v-1.6h11.9V88L221.1,88z"/>
			<path fill="#58595B" d="M231,102.9h-1.7V86.4h1.7V102.9z"/>
			<path fill="#58595B" d="M244.9,97.7c0.3,0.6,0.7,1.1,0.9,1.6c0.3,0.5,0.5,0.9,0.7,1.3l0.2,0c0-0.6-0.1-1.1-0.1-1.7
				c0-0.6,0-1.2,0-1.9V86.4h1.7v16.5h-1.9l-7-11.3c-0.3-0.4-0.5-0.8-0.8-1.4c-0.3-0.5-0.5-1-0.7-1.4v0c0,0,0,0,0,0c0,0,0,0,0,0h-0.2
				c0,0.6,0.1,1.1,0.1,1.7c0,0.5,0,1.2,0,1.9v10.5H236V86.4h1.9L244.9,97.7z"/>
			<path fill="#58595B" d="M260.2,87.7c-1,0-1.9,0.1-2.6,0.4c-0.8,0.3-1.5,0.7-2,1.3c-0.6,0.6-1,1.3-1.3,2.2
				c-0.3,0.9-0.5,1.9-0.5,3.1c0,1,0.1,2,0.4,2.8c0.3,0.9,0.6,1.6,1.1,2.2s1,1.1,1.7,1.4c0.6,0.3,1.4,0.5,2.1,0.5
				c0.6,0,1.2-0.1,1.7-0.3c0.5-0.2,1-0.5,1.4-0.8c0.4-0.4,0.7-0.8,0.9-1.4c0.2-0.5,0.3-1.2,0.3-1.9v-1.9h-3.4v-1.4h5v9h-1.3
				l-0.4-2.4c-0.4,0.7-0.9,1.4-1.7,1.9c-0.7,0.5-1.6,0.7-2.7,0.7c-1.1,0-2-0.2-2.9-0.6c-0.8-0.4-1.6-1-2.1-1.7
				c-0.6-0.7-1-1.6-1.3-2.6s-0.5-2.2-0.5-3.5c0-1.4,0.2-2.6,0.6-3.6c0.4-1.1,0.9-2,1.6-2.7c0.7-0.7,1.5-1.3,2.5-1.7
				c1-0.4,2.1-0.6,3.4-0.6c0.9,0,1.6,0.1,2.2,0.2c0.6,0.2,1.3,0.4,1.8,0.6c-0.1,0.2-0.1,0.5-0.2,0.7c-0.1,0.2-0.2,0.5-0.2,0.7
				C262.8,87.9,261.6,87.7,260.2,87.7z"/>
		</g>
		<path fill="#58595B" d="M52.9,15.8c0,0,3.6-0.1,9.1-0.1c2.7,0,5.9-0.1,9.3-0.1c3.4,0,7.1,0,10.7,0c3.6,0,7.3,0,10.7,0
			c3.4,0,6.6,0.1,9.3,0.1c5.5,0.1,9.1,0.2,9.1,0.2s-3.6,0.1-9.1,0.2c-2.7,0-5.9,0.1-9.3,0.1c-3.4,0-7.1,0-10.7,0
			c-3.6,0-7.3,0-10.7,0c-3.4,0-6.6-0.1-9.3-0.1C56.6,15.8,52.9,15.8,52.9,15.8z"/>
		<path fill="#58595B" d="M60.6,7.1c0,0,9.8-0.1,24.5-0.1c14.7,0,34.3-0.1,53.9-0.1c19.6,0,39.2,0.1,53.9,0.1
			c14.7,0.1,24.5,0.1,24.5,0.1s-9.8,0.1-24.5,0.1c-14.7,0-34.3,0.1-53.9,0.1c-19.6,0-39.2-0.1-53.9-0.1C70.4,7.1,60.6,7.1,60.6,7.1z
			"/>
		<path fill="#58595B" d="M65.1,0.5c0,0,0.1,3.2,0.1,7.9c0,2.4,0.1,5.1,0.1,8.1c0,3,0,6.1,0,9.3c0,3.2,0,6.3,0,9.3
			c0,3-0.1,5.7-0.1,8.1c-0.1,4.7-0.2,7.9-0.2,7.9s-0.1-3.2-0.2-7.9c0-2.4-0.1-5.1-0.1-8.1c0-3,0-6.1,0-9.3c0-3.2,0-6.3,0-9.3
			c0-3,0.1-5.7,0.1-8.1C65,3.6,65.1,0.5,65.1,0.5z"/>
		<path fill="#58595B" d="M112.3,0.7c0,0,0.1,2.6,0.1,6.4c0,1.9,0.1,4.2,0.1,6.6c0,2.4,0,5,0,7.5c0,2.6,0,5.1,0,7.5
			c0,2.4-0.1,4.6-0.1,6.6c-0.1,3.8-0.2,6.4-0.2,6.4s-0.1-2.6-0.2-6.4c0-1.9-0.1-4.2-0.1-6.6c0-2.4,0-5,0-7.5c0-2.6,0-5.1,0-7.5
			c0-2.4,0.1-4.6,0.1-6.6C112.3,3.3,112.3,0.7,112.3,0.7z"/>
		<path fill="#58595B" d="M139.8,9.8c0,0,1.1,3.1,2.9,7.8c0.8,2.3,1.8,5.1,2.9,8c1,2.9,2.1,6.1,3.3,9.2c1.1,3.1,2.2,6.3,3.2,9.2
			c1,2.9,1.9,5.7,2.8,8.1c1.6,4.7,2.6,7.9,2.6,7.9s-1.1-3.1-2.9-7.8c-0.8-2.3-1.8-5.1-2.9-8c-1-2.9-2.1-6.1-3.3-9.2
			c-1.1-3.1-2.2-6.3-3.2-9.2c-1-2.9-1.9-5.7-2.8-8.1C140.8,12.9,139.8,9.8,139.8,9.8z"/>
		<path fill="#58595B" d="M124.1,0c0,0,0.1,4.5,0.1,11.2c0,3.3,0.1,7.3,0.1,11.4c0,4.2,0,8.7,0,13.1c0,4.5,0,8.9,0,13.1
			c0,4.2-0.1,8.1-0.1,11.4c-0.1,6.7-0.2,11.2-0.2,11.2s-0.1-4.5-0.2-11.2c0-3.3-0.1-7.3-0.1-11.4c0-4.2,0-8.7,0-13.1
			c0-4.5,0-8.9,0-13.1c0-4.2,0.1-8.1,0.1-11.4C124.1,4.5,124.1,0,124.1,0z"/>
		<path fill="#58595B" d="M94.1,28.8c0,0,0.1,2.7,0.1,6.7c0,2,0.1,4.3,0.1,6.8c0,2.5,0,5.2,0,7.8c0,2.7,0,5.3,0,7.8
			c0,2.5-0.1,4.8-0.1,6.8c-0.1,4-0.2,6.7-0.2,6.7s-0.1-2.7-0.2-6.7c0-2-0.1-4.3-0.1-6.8c0-2.5,0-5.2,0-7.8c0-2.7,0-5.3,0-7.8
			c0-2.5,0.1-4.8,0.1-6.8C94,31.5,94.1,28.8,94.1,28.8z"/>
		<path fill="#58595B" d="M184.7,0.5c0,0,0.1,4.4,0.1,11.1c0,3.3,0.1,7.2,0.1,11.4c0,4.2,0,8.6,0,13c0,4.4,0,8.9,0,13
			c0,4.2-0.1,8-0.1,11.4c-0.1,6.7-0.2,11.1-0.2,11.1s-0.1-4.4-0.2-11.1c0-3.3-0.1-7.2-0.1-11.4c0-4.2,0-8.6,0-13c0-4.4,0-8.9,0-13
			c0-4.2,0.1-8,0.1-11.4C184.7,4.9,184.7,0.5,184.7,0.5z"/>
		<path fill="#58595B" d="M47.6,65.4c0,0,9.8-0.1,24.5-0.1c14.7,0,34.3-0.1,53.9-0.1c19.6,0,39.2,0.1,53.9,0.1
			c14.7,0.1,24.5,0.1,24.5,0.1s-9.8,0.1-24.5,0.1c-14.7,0-34.3,0.1-53.9,0.1c-19.6,0-39.2-0.1-53.9-0.1
			C57.4,65.5,47.6,65.4,47.6,65.4z"/>
		<path fill="#73C9BB" d="M65.4,7.3h46.8v8.7H93.8v49.1H83.7V16.1H65.4V7.3z"/>
		<path fill="#73C9BB" d="M124.4,7.3h14.3l16,45.3h0.2l15.6-45.3h14.1v57.8h-9.6V20.5h-0.2l-16,44.6h-8.3l-16-44.6h-0.2v44.6h-9.6
			V7.3z"/>
	</g>
</g>
<g id="Layer_2">
</g>
</svg>
